<svg width="129" height="103" viewBox="0 0 129 103" fill="none" xmlns="http://www.w3.org/2000/svg">
<path d="M69.4361 1.53871L97.6994 17.3468C98.3524 17.7119 98.8955 18.2434 99.2737 18.8865C99.6519 19.5299 99.8513 20.2615 99.8513 21.0067C99.8513 21.752 99.6519 22.4836 99.2737 23.127C98.8955 23.77 98.3524 24.3016 97.6994 24.6667L69.4364 40.4755C67.6325 41.4844 65.5984 42.0145 63.5294 42.0145C61.4601 42.0145 59.426 41.4844 57.6223 40.4755L29.3591 24.6667C28.7063 24.3016 28.1629 23.77 27.7848 23.127C27.4066 22.4836 27.2072 21.752 27.2072 21.0067C27.2072 20.2615 27.4066 19.5299 27.7848 18.8865C28.1629 18.2434 28.7063 17.7119 29.3591 17.3468L57.6223 1.53871C59.426 0.529804 61.4601 -3.8147e-06 63.5294 -3.8147e-06C65.5984 -3.8147e-06 67.6325 0.529804 69.4361 1.53871Z" fill="#5048E5"/>
<path opacity="0.7" d="M69.2834 16.3789L109.761 39.0186C110.413 39.3837 110.957 39.9153 111.335 40.5583C111.713 41.2017 111.913 41.9333 111.913 42.6786C111.913 43.4238 111.713 44.1557 111.335 44.7988C110.957 45.4421 110.413 45.9734 109.761 46.3387L69.2834 68.9782C67.4798 69.9868 65.4457 70.5169 63.3766 70.5169C61.3076 70.5169 59.2735 69.9868 57.4699 68.9782L16.9926 46.3387C16.3399 45.9734 15.7965 45.4421 15.4183 44.7988C15.0401 44.1557 14.8408 43.4238 14.8408 42.6786C14.8408 41.9333 15.0401 41.2017 15.4183 40.5583C15.7965 39.9153 16.3399 39.3837 16.9926 39.0186L57.4699 16.3789C59.2735 15.3703 61.3076 14.8405 63.3766 14.8405C65.4457 14.8405 67.4798 15.3703 69.2834 16.3789Z" fill="#5048E5"/>
<path opacity="0.4" d="M70.2061 31.2172L126.469 62.6868C127.121 63.0515 127.664 63.582 128.041 64.2242C128.419 64.8663 128.618 65.597 128.618 66.341C128.618 67.085 128.419 67.8154 128.041 68.4577C127.664 69.0998 127.121 69.6304 126.469 69.9949L70.2059 101.464C68.4052 102.471 66.3744 103 64.3088 103C62.2431 103 60.2123 102.471 58.4117 101.464L2.14834 69.9949C1.49667 69.6304 0.954147 69.0998 0.576584 68.4577C0.19902 67.8154 -1.52588e-05 67.085 -1.52588e-05 66.341C-1.52588e-05 65.597 0.19902 64.8663 0.576584 64.2242C0.954147 63.582 1.49667 63.0515 2.14834 62.6868L58.4117 31.2172C60.2123 30.2102 62.2431 29.681 64.3088 29.681C66.3744 29.681 68.4052 30.2102 70.2061 31.2172Z" fill="#5048E5"/>
</svg>
